<svg width="31" height="30" viewBox="0 0 31 30" fill="none" xmlns="http://www.w3.org/2000/svg">
<g id="calendar 1">
<path id="Vector" d="M24.5417 23.75H6.45833V10H24.5417M20.6667 1.25V3.75H10.3333V1.25H7.75V3.75H6.45833C5.02458 3.75 3.875 4.8625 3.875 6.25V23.75C3.875 24.413 4.14717 25.0489 4.63164 25.5178C5.11611 25.9866 5.77319 26.25 6.45833 26.25H24.5417C25.2268 26.25 25.8839 25.9866 26.3684 25.5178C26.8528 25.0489 27.125 24.413 27.125 23.75V6.25C27.125 5.58696 26.8528 4.95107 26.3684 4.48223C25.8839 4.01339 25.2268 3.75 24.5417 3.75H23.25V1.25M21.9583 15H15.5V21.25H21.9583V15Z" fill="#E09870"/>
</g>
</svg>
