<svg width="29" height="25" viewBox="0 0 29 25" fill="none" xmlns="http://www.w3.org/2000/svg">
<g id="basket 1">
<path id="Vector" d="M6.64587 21.875C5.70337 21.875 4.88171 21.4063 4.48296 20.7292L1.32921 10.875L1.20837 10.4167C1.20837 10.1404 1.33568 9.87549 1.56229 9.68014C1.78889 9.48479 2.09624 9.37504 2.41671 9.37504H7.95087L13.5092 2.53129C13.6206 2.39158 13.77 2.2775 13.9443 2.19902C14.1187 2.12054 14.3126 2.08005 14.5093 2.08107C14.7059 2.0821 14.8993 2.12462 15.0725 2.20491C15.2457 2.28521 15.3935 2.40084 15.503 2.54171L21.0492 9.37504H26.5834C26.9038 9.37504 27.2112 9.48479 27.4378 9.68014C27.6644 9.87549 27.7917 10.1404 27.7917 10.4167L27.7434 10.7188L24.5171 20.7292C24.1184 21.4063 23.2967 21.875 22.3542 21.875H6.64587ZM14.5 4.93754L10.875 9.37504H18.125L14.5 4.93754ZM14.5 13.5417C13.8591 13.5417 13.2444 13.7612 12.7912 14.1519C12.338 14.5426 12.0834 15.0725 12.0834 15.625C12.0834 16.1776 12.338 16.7075 12.7912 17.0982C13.2444 17.4889 13.8591 17.7084 14.5 17.7084C15.141 17.7084 15.7557 17.4889 16.2089 17.0982C16.6621 16.7075 16.9167 16.1776 16.9167 15.625C16.9167 15.0725 16.6621 14.5426 16.2089 14.1519C15.7557 13.7612 15.141 13.5417 14.5 13.5417Z" fill="#595959"/>
</g>
</svg>
