<svg width="28" height="29" viewBox="0 0 28 29" fill="none" xmlns="http://www.w3.org/2000/svg">
<g id="map-marker 1">
<path id="Vector" d="M14 13.8958C13.2265 13.8958 12.4846 13.5775 11.9376 13.011C11.3907 12.4445 11.0834 11.6761 11.0834 10.875C11.0834 10.0738 11.3907 9.30542 11.9376 8.73891C12.4846 8.17239 13.2265 7.85413 14 7.85413C14.7736 7.85413 15.5155 8.17239 16.0624 8.73891C16.6094 9.30542 16.9167 10.0738 16.9167 10.875C16.9167 11.2717 16.8413 11.6645 16.6947 12.031C16.5481 12.3975 16.3333 12.7305 16.0624 13.011C15.7916 13.2915 15.4701 13.514 15.1162 13.6658C14.7623 13.8177 14.3831 13.8958 14 13.8958ZM14 2.41663C11.8341 2.41663 9.75688 3.30777 8.22534 4.89401C6.69379 6.48026 5.83337 8.63167 5.83337 10.875C5.83337 17.2187 14 26.5833 14 26.5833C14 26.5833 22.1667 17.2187 22.1667 10.875C22.1667 8.63167 21.3063 6.48026 19.7747 4.89401C18.2432 3.30777 16.166 2.41663 14 2.41663Z" fill="#E09870"/>
</g>
</svg>
